<svg width="893" height="845" viewBox="0 0 893 845" fill="none" xmlns="http://www.w3.org/2000/svg">
<path d="M770.168 844.661C770.168 833.976 770.168 823.121 770.168 812.436C770.168 675.906 770.168 539.375 769.999 402.844C769.999 398.435 769.829 393.855 769.829 388.937C767.794 388.598 766.098 388.258 764.571 388.258C762.367 388.089 759.992 388.258 757.787 388.258C549.175 388.258 340.563 388.258 132.121 388.258C128.559 388.258 124.828 388.428 121.097 388.428C119.57 391.82 119.909 394.873 119.909 397.926C119.74 411.833 119.909 425.571 119.909 439.479C119.909 571.43 119.909 703.381 119.909 835.502C119.909 838.555 120.249 841.778 118.722 844.661C79.2047 844.661 39.6872 844.661 0 844.661C0 761.555 0 678.45 0 595.344C0.339206 592.291 1.01762 589.238 1.01762 586.185C3.56167 468.311 2.88325 350.437 3.05285 232.732C3.05285 229.849 3.05285 227.135 3.05285 223.913C6.61452 221.878 10.0066 219.842 13.3987 217.977C55.1211 196.776 97.013 175.576 138.905 154.376C226.251 110.109 313.766 65.6732 401.112 21.4067C412.984 15.4706 424.856 9.36489 436.559 3.42877C438.255 2.58076 440.12 1.73274 441.986 1.05432C444.191 0.206308 446.396 0.036705 448.601 1.05432C450.975 2.07194 453.349 3.08957 455.554 4.10719C573.937 62.7899 692.49 121.473 810.873 179.986C834.109 191.519 857.514 203.052 880.75 214.415C881.937 215.094 883.294 215.772 884.481 216.281C890.078 218.655 892.283 222.895 892.113 229.001C891.943 246.809 891.943 264.618 891.943 282.426C891.943 462.206 891.943 641.985 891.943 821.595C891.943 829.227 891.943 836.859 891.943 844.491C851.578 844.661 810.873 844.661 770.168 844.661ZM875.153 826.683C876.509 822.782 876.001 819.051 876.001 815.319C876.001 675.736 876.001 536.153 876.17 396.399C876.17 345.179 876.34 294.129 876.34 242.909C876.34 230.188 876.34 230.188 865.316 224.761C729.124 157.429 593.102 89.9264 456.911 22.5939C454.876 21.5763 452.841 20.7283 450.805 19.7107C447.583 18.0146 444.36 18.1842 441.138 19.8803C439.442 20.7283 437.576 21.5763 435.88 22.4243C404.334 38.367 372.957 54.4793 341.581 70.422C260.511 111.466 179.271 152.68 98.2003 193.724C74.795 205.596 51.3898 217.468 27.8149 229.171C22.3876 231.884 19.3348 235.446 19.8436 241.721C19.8436 242.569 19.8436 243.417 19.8436 244.265C19.8436 285.479 19.674 326.862 19.674 368.076C19.5044 493.073 19.1652 617.901 18.9956 742.899C18.9956 768.679 18.9956 794.289 18.9956 820.068C18.9956 822.443 18.3171 825.156 20.522 827.531C21.5396 827.701 22.5572 827.87 23.7445 827.87C49.6937 827.87 75.8126 827.7 101.762 827.7C102.101 827.7 102.271 827.701 102.61 827.531C102.78 827.361 102.949 827.192 103.797 826.344C104.476 823.46 104.136 819.729 104.136 816.167C104.136 649.617 104.136 483.236 104.136 316.686C104.136 312.955 104.136 309.393 104.136 305.662C104.136 304.135 104.645 302.439 105.154 300.404C109.733 300.404 113.973 300.234 118.213 300.234C205.898 300.065 293.414 299.726 381.098 299.556C477.433 299.556 573.937 299.726 670.272 299.895C705.549 299.895 740.996 300.065 776.274 300.234C779.666 300.234 783.058 299.895 786.281 301.082C787.807 304.814 787.129 308.545 787.129 312.107C787.129 468.142 787.298 624.177 787.298 780.212C787.298 794.119 787.298 807.857 787.468 821.764C787.468 823.63 787.977 825.496 788.316 827.192C801.206 828.718 864.637 828.379 875.153 826.683ZM768.472 316.856C764.232 316.686 760.162 316.686 756.261 316.516C689.607 316.177 622.953 315.838 556.299 315.838C440.799 315.838 325.129 316.008 209.63 316.347C183.002 316.347 156.544 316.686 129.916 317.025C126.863 317.025 123.81 316.347 121.097 318.043C120.079 327.541 120.249 363.666 121.436 370.111C123.471 370.281 125.676 370.789 127.881 370.789C136.87 370.959 146.028 371.129 155.017 371.129C333.949 371.129 512.711 371.298 691.642 371.129C714.538 371.129 737.435 370.789 760.331 370.62C763.384 370.62 766.607 371.298 769.32 369.433C770.847 359.935 770.507 325.675 768.472 316.856Z" fill="white"/>
<path d="M531.027 474.587C531.706 475.604 532.045 476.452 532.554 477.131C560.877 527.503 589.371 578.045 617.864 628.586C615.998 631.639 613.115 632.827 610.571 634.353C571.902 658.606 533.062 683.029 494.223 707.282C482.012 714.914 469.8 722.547 457.589 730.179C455.215 731.705 452.84 733.062 450.126 734.588C447.243 732.723 446.226 729.67 444.869 727.126C426.043 692.357 407.217 657.589 388.391 622.82C381.946 610.948 375.501 598.906 369.056 587.034C367.699 584.49 366.512 582.115 365.155 579.402C366.003 578.553 366.851 577.536 367.699 577.027C421.803 543.106 476.076 509.016 531.027 474.587ZM566.305 565.494C557.485 571.091 549.514 575.84 541.712 580.928C540.355 581.776 539.338 583.133 538.32 584.15C539.338 586.016 540.186 587.542 540.864 589.069C541.712 590.765 542.391 592.631 543.239 594.666C539.677 596.871 536.624 599.245 533.232 600.432C529.331 598.227 528.822 593.309 525.091 591.783C512.71 598.397 503.382 604.503 498.463 609.252C501.855 615.527 505.247 621.972 508.809 628.247C512.371 635.031 515.932 641.646 519.664 648.26C523.225 654.536 525.939 661.32 530.518 666.917C531.706 666.408 532.554 666.238 533.402 665.899C554.772 653.349 575.802 640.119 596.155 626.042C597.342 625.194 598.19 624.177 599.208 622.99C588.184 604.164 577.498 585.338 566.305 565.494ZM416.036 642.833C435.032 632.148 473.362 607.556 478.959 602.637C475.567 596.362 472.175 589.917 468.613 583.472C465.052 576.688 461.49 570.073 457.759 563.289C454.197 557.014 451.314 550.23 446.734 544.124C436.558 549.891 427.23 555.996 417.732 562.102C419.598 566.003 421.124 569.564 422.82 573.126C419.259 575.84 416.206 578.045 412.814 579.402C408.913 577.027 408.574 572.278 404.334 570.413C398.737 573.974 392.97 577.536 387.204 581.267C385.847 582.115 384.829 583.302 383.812 584.32C393.14 604.333 410.948 636.558 416.036 642.833ZM480.316 572.957C487.778 568.716 495.071 563.968 502.534 559.388C509.996 554.809 517.459 550.23 524.752 545.481C532.045 540.732 539.847 536.831 546.461 531.234C541.882 520.549 529.501 499.349 525.6 495.278C516.611 499.518 500.159 510.034 496.089 514.443C497.615 517.666 499.142 520.888 500.838 524.111C497.615 527.164 494.054 528.86 490.322 530.895C487.778 527.673 485.404 524.62 482.69 521.397C474.719 526.485 466.917 530.725 459.963 536.153C462.847 545.82 473.871 565.664 480.316 572.957ZM457.928 634.183C459.455 637.575 461.151 640.967 462.847 644.529C459.285 647.073 456.232 649.448 452.162 650.804C449.787 647.752 447.582 644.868 445.378 642.155C438.763 644.699 427.4 651.822 422.312 656.91C427.569 666.747 432.827 676.584 438.254 686.421C438.933 687.778 440.12 688.965 441.137 690.152C454.875 682.52 498.463 654.875 504.06 650.126C501.516 644.529 498.294 638.932 495.071 633.335C491.849 627.738 489.644 621.802 485.574 616.884C478.62 620.106 463.525 629.604 457.928 634.183ZM454.197 714.745C460.472 712.201 511.523 680.485 517.629 675.227C515.933 671.326 514.236 667.256 510.844 663.525C503.721 668.104 496.767 672.344 489.814 676.584C482.69 680.994 475.397 685.573 468.274 690.152C461.49 694.562 454.197 698.124 447.752 703.551C449.787 707.622 451.483 711.522 454.197 714.745ZM553.584 544.294C552.397 544.802 551.38 545.142 550.362 545.65C530.01 558.371 509.657 570.921 489.474 583.642C488.287 584.32 487.439 585.507 486.591 586.355C487.609 590.087 488.966 592.97 491.679 595.005C500.838 590.426 553.754 557.014 558.503 552.774C557.825 549.721 556.128 546.838 553.584 544.294Z" fill="white"/>
<path d="M265.429 449.655C271.365 458.813 276.453 468.142 281.88 477.3C287.477 486.798 292.904 496.296 298.501 505.793C303.929 515.122 309.356 524.28 314.614 533.608C320.041 542.937 325.468 552.095 330.726 561.423C336.153 570.751 341.58 579.91 346.838 589.238C352.435 598.736 357.862 608.234 363.459 617.901C368.887 627.229 374.314 636.388 379.741 645.716C385.168 655.044 390.426 664.372 395.854 673.531C401.281 682.859 406.708 692.018 412.135 701.346C417.732 710.844 423.16 720.342 428.757 730.009C434.184 739.337 439.442 748.496 444.869 757.824C448.6 757.145 450.975 755.28 453.688 753.753C522.208 714.745 590.558 675.566 659.078 636.558C661.791 635.031 664.505 633.674 667.388 632.148C670.78 636.558 673.494 640.798 675.529 645.716C674.172 646.734 673.155 647.582 671.968 648.26C594.798 692.357 517.629 736.454 440.459 780.551C437.406 778.685 436.558 775.802 435.032 773.427C408.743 728.313 382.455 683.029 356.166 637.914C325.638 585.337 295.109 532.93 264.581 480.353C263.224 477.979 261.697 475.604 260.001 472.89C252.369 475.943 246.094 480.692 239.479 484.763C232.865 488.663 226.42 492.734 220.145 496.465C217.092 495.448 216.413 492.734 215.056 490.699C213.53 488.663 212.343 486.459 210.816 483.915C211.834 482.897 212.682 481.879 213.869 481.201C229.982 471.194 246.094 461.188 262.206 451.351C262.885 450.672 263.902 450.333 265.429 449.655Z" fill="white"/>
<path d="M558.333 801.581C558.841 822.612 542.39 842.965 518.137 843.473C493.375 843.982 475.227 824.817 475.397 801.412C475.397 779.194 492.866 760.029 517.119 760.198C543.747 760.198 558.672 782.247 558.333 801.581ZM544.764 801.581C545.273 789.37 535.267 773.597 516.61 773.767C499.65 773.936 488.795 787.504 488.965 802.09C489.135 817.185 501.516 829.396 516.78 829.396C532.383 829.396 544.764 817.185 544.764 801.581Z" fill="white"/>
<path d="M388.392 732.553C388.392 736.623 388.392 739.676 388.392 742.559C385 744.764 381.439 744.256 378.216 744.256C360.408 744.425 342.599 744.595 324.791 744.595C290.701 744.595 256.441 744.425 222.351 744.425C218.789 744.425 215.058 744.764 211.666 743.407C210.309 740.015 210.818 736.963 211.157 733.91C213.531 731.705 216.584 732.214 219.298 732.214C237.615 731.875 255.932 731.196 274.419 731.196C305.965 731.196 337.681 731.366 369.227 731.535C375.163 731.705 381.269 732.214 388.392 732.553Z" fill="white"/>
<path d="M362.613 698.293C363.461 702.873 363.461 706.434 362.782 709.996C361.595 710.335 360.917 710.844 360.069 710.844C324.282 710.844 288.496 710.844 252.71 710.844C251.862 710.844 251.183 710.335 249.996 709.996C249.996 706.604 249.996 703.381 249.996 699.65C251.692 699.311 253.219 698.632 254.745 698.632C260.003 698.293 265.43 697.954 270.857 697.954C297.146 697.784 323.265 697.784 349.553 697.784C353.624 697.445 357.864 697.954 362.613 698.293Z" fill="white"/>
<path d="M273.74 680.145C273.74 675.736 273.74 672.344 273.74 668.782C279.676 667.086 285.612 667.086 291.379 667.086C306.982 667.086 322.756 665.899 338.189 668.104C339.885 672.174 339.546 675.736 339.037 679.637C331.745 681.163 324.452 680.145 317.159 680.315C310.205 680.485 303.082 680.315 296.128 680.315C289.005 680.315 281.712 680.485 273.74 680.145Z" fill="white"/>
</svg>
