<svg width="846" height="847" viewBox="0 0 846 847" fill="none" xmlns="http://www.w3.org/2000/svg">
<path d="M757.844 846.661C757.335 845.982 757.165 845.134 756.487 844.625C752.755 841.912 751.568 837.841 751.399 833.432C751.399 830.379 751.399 827.156 751.399 824.104C751.399 681.637 751.399 539.34 751.399 396.873C751.399 392.972 752.077 388.902 750.381 384.662C748.685 384.322 746.819 383.814 744.954 383.644C737.321 383.474 729.689 383.644 722.057 383.644C518.872 383.644 315.688 383.644 112.673 383.644C108.772 383.644 104.871 383.814 100.461 383.814C99.9525 385.849 99.2742 387.375 99.2742 388.902C99.1046 392.633 99.1048 396.195 99.1048 399.926C99.1048 540.866 99.1048 681.976 99.1048 822.916C99.1048 825.46 98.9352 828.004 99.1048 830.548C99.2744 836.654 98.087 842.251 92.9989 846.491C64.6752 846.491 36.5211 846.491 8.19732 846.491C7.1797 845.474 6.3316 844.456 5.14438 843.608C2.26112 841.403 1.0739 838.35 0.904297 834.789C0.904297 831.905 0.904297 829.192 0.904297 826.308C0.904297 665.524 0.904297 504.741 0.904297 343.957C0.904297 312.919 0.904297 281.712 0.904297 250.675C0.904297 247.792 0.904463 245.078 1.07407 242.195C1.41327 236.089 4.29661 231.51 9.2151 228.118C10.9111 227.1 12.6072 226.083 14.3032 225.065C86.0454 185.039 157.787 144.843 229.53 104.816C260.906 87.3471 292.452 70.3868 323.829 53.0873C350.457 38.3318 377.084 23.2371 403.712 8.312C407.104 6.44636 410.666 4.58073 414.058 2.7151C420.842 -1.01617 427.456 -0.846573 434.241 2.8847C447.809 10.5168 461.207 18.149 474.945 25.6115C577.216 81.5806 679.656 137.38 781.927 193.349C799.566 203.017 817.035 212.854 834.504 222.521C839.592 225.235 843.832 228.627 845.867 234.393C845.867 435.712 845.867 636.862 845.867 838.181C844.341 841.573 841.797 844.286 839.083 846.661C812.116 846.661 784.98 846.661 757.844 846.661ZM829.077 827.496C829.247 824.273 829.416 821.39 829.416 818.676C829.416 630.925 829.586 443.344 829.586 255.594C829.586 252.541 829.416 249.318 829.247 246.265C829.077 241.686 826.702 238.294 822.971 235.75C821.275 234.732 819.579 233.715 817.883 232.867C809.742 228.457 801.432 224.217 793.121 219.807C673.551 154.001 553.98 88.3647 434.58 22.5587C432.036 21.2018 429.661 20.0146 427.117 18.6578C425.252 17.6402 423.386 17.6402 421.52 18.4882C419.824 19.3362 417.959 20.1842 416.263 21.2019C404.56 27.6468 393.027 33.9221 381.324 40.367C351.813 56.9881 322.302 73.7788 292.622 90.2304C264.807 105.664 236.653 120.929 208.668 136.362C169.49 158.241 130.311 180.29 91.1331 202.168C70.6111 213.532 50.2591 225.065 29.5675 236.259C17.0169 243.212 18.3735 241.516 18.3735 255.085C18.3735 441.987 18.3735 628.721 18.3735 815.623C18.3735 818.167 18.3735 820.711 18.3735 823.255C18.5431 824.782 18.8823 826.478 19.2215 828.513C40.0827 828.513 60.6047 828.683 81.1267 828.344C83.1619 824.273 82.3138 820.542 82.3138 816.98C82.3138 732.518 82.3138 647.886 82.3138 563.423C82.3138 482.862 82.3138 402.3 82.3138 321.739C82.3138 317.838 82.3138 313.767 82.653 309.867C83.501 303.082 86.7235 299.69 93.3381 298.673C97.2389 298.164 101.14 297.994 105.21 297.994C173.391 297.994 241.402 297.994 309.582 297.994C454.254 297.994 599.095 297.994 743.766 297.994C746.65 297.994 749.363 297.825 752.247 297.994C754.451 298.164 756.826 298.334 759.031 298.842C762.932 299.69 765.306 302.404 766.154 306.305C766.663 308.51 766.833 310.715 766.833 313.089C767.002 316.99 766.833 321.06 766.833 324.961C766.833 488.628 766.833 652.295 766.833 815.963C766.833 818.507 766.833 821.051 766.833 823.595C766.833 824.952 767.341 826.308 767.681 827.496C774.634 828.344 820.088 828.513 829.077 827.496ZM750.211 315.633C746.141 315.633 742.41 315.633 738.848 315.633C529.727 315.633 320.606 315.633 111.486 315.633C109.281 315.633 106.906 315.633 104.701 315.633C103.005 315.633 101.479 315.972 99.9528 316.311C99.6136 317.499 99.2742 318.347 99.2742 319.195C99.2742 333.95 99.2742 348.536 99.2742 363.292C99.2742 364.818 99.9525 366.514 100.461 368.38C104.701 368.38 108.603 368.549 112.673 368.549C321.285 368.549 529.897 368.549 738.339 368.549C740.883 368.549 743.427 368.719 745.971 368.549C747.498 368.38 749.194 368.04 750.551 367.701C751.738 359.391 751.738 323.604 750.211 315.633Z" fill="white"/>
<path d="M257.516 846.661C257.346 846.491 257.176 846.152 257.007 845.982C249.544 842.59 247 836.654 247.17 828.853C247.17 825.121 247 821.56 247 817.828C247.339 806.465 250.562 796.119 257.176 786.961C260.229 782.89 261.416 778.65 261.247 773.562C260.908 767.965 261.247 762.199 261.247 756.602C261.247 679.432 261.247 602.263 261.247 525.093C261.247 522.21 261.247 519.496 261.247 516.613C261.247 512.203 260.229 508.133 257.516 504.741C247 490.664 245.644 474.551 247.509 457.93C248.357 450.637 251.41 448.093 258.703 446.228C271.423 443.175 283.465 445.21 294.998 450.298C299.069 452.164 303.139 454.199 306.87 456.743C309.923 458.609 312.806 459.457 316.368 459.118C336.042 457.252 355.716 455.386 375.39 453.86C397.099 452.164 418.808 449.789 440.517 451.485C451.542 452.333 462.396 453.351 473.421 454.369C480.714 455.047 488.006 455.556 495.299 456.404C503.949 457.252 512.769 458.1 521.418 459.287C525.998 459.966 529.729 459.287 533.291 456.574C535.156 455.217 537.022 453.86 538.887 452.842C552.455 445.549 566.872 442.666 582.136 446.058C588.92 447.585 592.312 451.655 593.16 458.27C595.365 475.23 592.482 491.003 582.476 504.91C579.083 509.49 577.727 514.239 577.727 519.835C577.896 603.789 577.896 687.743 577.727 771.696C577.727 776.954 578.575 781.703 581.967 785.943C592.991 800.02 595.026 816.132 593.16 833.262C592.651 837.502 590.786 840.725 587.394 843.099C585.867 844.286 584.171 845.304 582.645 846.491C574.165 846.491 565.685 846.491 557.204 846.491C556.526 845.983 556.017 845.134 555.339 844.965C546.52 842.421 538.378 838.69 531.255 832.923C529.389 831.397 527.185 831.057 524.81 831.397C510.225 832.753 495.639 833.941 481.053 835.467C461.209 837.502 441.196 839.198 421.183 839.538C411.855 839.707 402.527 839.707 393.368 838.35C387.601 837.502 381.495 836.824 375.729 836.824C357.921 836.994 340.452 832.245 322.813 832.075C322.304 832.075 321.626 831.905 321.117 831.905C315.181 830.718 309.923 831.905 305.174 835.637C299.917 839.538 294.15 842.421 287.874 844.286C286.009 844.795 284.313 845.813 282.447 846.661C274.476 846.661 265.996 846.661 257.516 846.661ZM263.113 827.326C267.692 828.683 271.593 828.174 275.494 828.174C282.278 828.344 288.383 826.478 293.811 822.577C296.185 820.881 298.56 819.524 300.934 817.998C304.326 815.793 308.057 814.776 312.128 814.776C320.947 814.776 329.597 814.776 338.416 815.963C345.37 816.98 352.494 817.32 359.447 817.828C365.892 818.337 372.337 818.846 378.782 819.524C383.192 820.033 387.771 820.881 392.18 821.051C406.597 821.22 421.013 821.22 435.429 821.22C444.418 821.22 453.577 821.051 462.396 819.355C471.046 817.659 479.865 817.489 488.515 817.32C492.755 817.32 496.995 816.98 501.066 816.132C510.225 814.436 519.553 814.267 528.881 814.436C533.799 814.436 538.379 815.793 542.11 819.185C543.297 820.372 544.654 821.39 546.18 822.238C555.339 828.174 565.345 829.701 576.2 827.835C576.539 825.969 577.048 824.782 577.218 823.425C577.387 821.22 577.387 818.846 577.218 816.641C576.539 808.839 573.826 801.886 568.907 795.61C564.498 790.013 562.462 783.738 562.801 776.615C562.801 775.767 562.801 774.919 562.801 774.071C562.801 687.912 562.801 601.584 562.801 515.426C562.801 513.391 562.801 511.525 562.801 509.49C562.971 504.571 564.328 499.992 567.72 496.261C571.451 492.19 573.486 487.272 575.182 482.184C577.218 475.399 578.574 468.615 575.522 461.322C569.755 459.966 564.328 460.644 558.9 462.17C552.795 463.866 547.537 466.919 542.449 470.651C536.004 475.569 528.711 477.095 520.909 475.908C499.031 472.686 477.321 469.972 455.103 469.633C453.747 469.633 452.22 469.463 450.863 469.294C435.26 465.902 419.487 466.41 403.713 467.428C395.912 467.937 387.941 469.463 380.139 469.633C371.319 469.803 362.669 470.651 354.02 471.838C342.317 473.534 330.445 473.534 318.743 476.078C311.11 477.774 303.647 475.23 297.203 470.481C295.676 469.294 294.15 467.937 292.454 466.919C285.161 461.831 277.02 460.135 268.37 460.644C264.3 460.814 262.943 462.679 262.773 466.58C262.773 467.089 262.773 467.767 262.773 468.276C264.469 478.283 265.826 488.459 273.119 496.43C277.02 500.501 278.377 505.589 278.038 511.355C277.868 513.56 278.038 515.935 278.038 518.139C278.038 594.97 278.038 671.97 278.038 748.8C278.038 758.976 278.038 769.152 278.038 779.328C278.038 784.925 276.681 789.844 272.95 794.084C265.996 801.886 264.13 811.553 262.604 821.39C262.264 823.425 262.773 825.121 263.113 827.326Z" fill="white"/>
<path d="M430.849 629.568C432.715 628.551 434.411 627.703 436.107 626.855C442.891 622.954 450.015 620.919 457.986 621.258C460.869 621.427 463.583 621.088 466.466 621.427C473.759 621.936 477.321 625.159 478.338 632.282C482.07 658.062 470.706 675.022 448.488 685.198C445.266 686.725 441.365 686.894 437.803 687.403C435.598 687.742 433.394 687.742 430.68 687.742C430.51 690.965 430.171 693.678 430.171 696.392C430.171 707.925 430.171 719.458 430.001 731.161C430.001 734.214 429.493 737.436 428.645 740.319C427.457 744.22 423.726 746.425 420.334 746.086C416.772 745.747 414.228 743.711 413.38 739.811C412.702 736.758 412.532 733.705 412.363 730.652C412.193 719.288 412.363 708.095 412.193 696.731C412.193 694.018 412.024 691.134 411.854 687.912C409.819 687.742 408.123 687.573 406.596 687.573C389.297 686.725 376.746 678.075 368.266 663.489C364.704 657.383 362.669 650.599 362.33 643.306C361.991 638.388 362.669 633.808 364.704 629.229C366.739 624.65 369.962 621.936 374.88 621.597C385.396 620.579 395.742 621.597 405.24 626.685C407.105 627.703 409.14 628.72 411.006 629.738C412.532 626.685 411.345 624.311 409.819 622.445C408.462 620.749 406.766 619.223 405.07 617.527C385.565 597.853 390.145 562.575 413.38 547.141C418.977 543.41 423.557 543.58 428.984 547.65C451.202 563.932 454.933 594.8 437.294 616.509C435.598 618.714 433.563 620.749 431.697 622.954C430.341 624.65 429.832 626.685 430.849 629.568ZM420.843 607.69C434.92 601.245 436.786 572.412 420.673 563.932C406.596 576.483 406.766 597.174 420.843 607.69ZM462.735 639.236C446.962 632.791 424.744 653.991 431.528 669.764C448.828 670.952 461.548 658.74 462.735 639.236ZM411.515 669.764C411.684 668.068 412.193 666.881 412.193 665.524C411.684 654.5 403.713 643.476 393.367 639.745C388.958 638.218 384.378 636.861 379.12 639.066C378.781 648.564 382.343 656.196 389.127 662.132C395.403 667.899 402.356 671.63 411.515 669.764Z" fill="white"/>
</svg>
