<svg width="845" height="844" viewBox="0 0 845 844" fill="none" xmlns="http://www.w3.org/2000/svg">
<path d="M756.978 843.661C756.3 843.152 755.791 842.304 755.112 841.965C751.042 839.421 749.855 835.52 749.685 831.11C749.685 829.075 749.685 827.209 749.685 825.174C749.685 681.859 749.685 538.544 749.685 395.23C749.685 391.668 750.533 387.937 748.328 384.205C747.311 384.036 746.293 383.357 745.276 383.357C531.237 383.357 317.367 383.357 103.327 383.357C101.971 383.357 100.614 383.697 98.9178 384.036C98.5786 385.732 98.0698 387.428 98.0698 388.954C97.9002 392.007 97.9003 395.23 97.9003 398.283C97.9003 537.018 97.9003 675.923 97.9003 814.659C97.9003 819.238 97.9003 823.647 97.9003 828.227C97.9003 833.654 96.5435 838.233 91.7946 841.456C91.1162 841.965 90.7769 842.813 90.4377 843.491C62.7924 843.491 34.9774 843.491 7.3321 843.491C6.48409 842.643 5.97523 841.795 4.95762 841.117C1.39595 838.573 0.20885 835.011 0.20885 830.771C0.20885 827.379 0.20885 823.987 0.20885 820.595C0.20885 632.165 0.20885 443.567 0.20885 255.137C0.20885 250.049 0.208684 244.961 0.039081 239.873C-0.130522 234.785 1.90488 231.054 6.14496 228.679C8.51941 227.322 11.0633 225.796 13.4378 224.439C50.7505 203.748 88.0632 183.226 125.376 162.534C187.111 128.274 248.847 94.0144 310.583 59.9241C340.263 43.4726 369.944 27.3603 399.624 11.0784C404.543 8.36475 409.461 5.65109 414.38 2.76784C419.468 -0.285018 424.556 -0.285016 429.644 2.59824C432.697 4.29427 435.58 5.8207 438.633 7.51674C472.045 25.8339 505.457 44.3206 538.869 62.6378C554.472 71.1179 570.245 79.4285 585.849 87.9086C595.855 93.336 605.692 98.5937 615.699 104.021C687.102 143.03 758.335 182.038 829.738 221.047C832.621 222.743 835.674 224.439 838.388 226.305C842.458 229.358 844.663 233.428 844.494 238.686C844.494 242.587 844.494 246.657 844.494 250.558C844.494 438.818 844.494 626.908 844.494 815.167C844.494 819.407 844.494 823.647 844.494 827.888C844.494 833.824 843.137 839.081 837.54 842.473C837.031 842.813 836.861 843.321 836.522 843.83C810.064 843.661 783.606 843.661 756.978 843.661ZM18.8652 824.665C20.0524 824.835 20.9004 825.174 21.7484 825.174C39.8959 825.174 57.8739 825.343 76.0214 825.174C77.3782 825.174 78.5655 824.495 80.2615 824.156C80.2615 821.273 80.2615 818.729 80.2615 816.185C80.2615 725.447 80.2615 634.709 80.2615 543.972C80.2615 468.837 80.2615 393.534 80.2615 318.399C80.2615 315.347 80.2614 312.124 80.6006 309.071C81.6182 302.457 85.0103 299.065 91.6248 297.877C94.6777 297.369 97.9001 297.369 100.953 297.369C131.821 297.369 162.519 297.369 193.387 297.369C378.254 297.369 563.122 297.369 747.989 297.369C750.194 297.369 752.569 297.199 754.773 297.538C760.031 298.217 763.762 301.1 764.61 306.527C765.119 309.58 765.289 312.633 765.289 315.855C765.289 480.879 765.289 646.073 765.289 811.097C765.289 814.15 765.289 817.372 765.289 820.425C765.289 821.782 765.628 823.139 765.798 824.495C766.985 824.835 767.663 825.344 768.511 825.344C786.659 825.344 804.637 825.513 822.784 825.344C823.802 825.344 824.989 825.004 825.498 824.835C826.007 824.156 826.176 823.987 826.346 823.817C826.515 823.647 826.516 823.308 826.516 822.969C826.516 822.46 826.685 821.782 826.685 821.273C826.685 629.961 826.685 438.478 826.685 247.166C826.685 244.961 826.516 242.587 826.516 240.382C826.516 240.043 826.346 239.873 826.346 239.534C826.176 239.195 826.177 239.025 825.837 238.347C823.802 237.16 821.258 235.803 818.714 234.446C811.421 230.545 804.128 226.814 797.005 222.913C712.712 176.781 628.589 130.649 544.296 84.347C504.609 62.6378 465.091 40.9286 425.404 19.2194C424.217 18.5409 422.86 18.2017 421.503 17.6929C419.298 18.7105 417.263 19.7282 415.228 20.7458C325.677 70.2699 236.296 119.624 146.746 169.149C106.38 191.367 66.1844 213.924 25.9885 236.311C23.1052 238.007 20.2219 239.704 17.6779 241.23C15.9818 269.723 16.6604 811.775 18.8652 824.665ZM749.007 315.855C745.106 315.855 742.053 315.686 739 315.686C709.32 315.686 679.639 315.686 649.959 315.686C470.349 315.686 290.569 315.686 110.96 315.686C108.416 315.686 105.872 315.516 103.327 315.686C101.801 315.855 100.105 316.195 98.7483 316.534C97.3914 325.692 97.561 360.291 99.0874 366.906C102.988 368.772 107.398 367.924 111.469 367.924C319.741 367.924 528.014 367.924 736.117 367.924C739 367.924 741.714 367.924 744.597 367.754C745.954 367.754 747.311 367.076 748.498 366.906C748.837 365.888 749.516 365.04 749.516 364.192C749.686 349.776 749.685 335.36 749.685 320.943C749.685 319.587 749.346 318.23 749.007 315.855Z" fill="white"/>
<path d="M525.131 571.448C530.219 572.805 535.477 574.161 540.565 575.518C549.724 578.232 558.882 580.946 568.21 583.659C569.567 583.998 570.924 584.677 572.111 585.186C578.895 588.239 579.913 590.952 576.69 598.754C571.602 600.959 566.175 600.959 561.087 599.093C548.367 594.344 534.968 591.8 521.909 588.238C516.481 586.712 511.054 585.355 505.627 583.49C502.913 582.642 500.708 582.472 498.334 583.829C496.807 584.677 495.281 585.355 493.924 586.203C477.642 595.362 461.36 604.351 445.078 613.509C444.061 614.018 443.213 614.697 441.686 615.714C442.704 616.732 443.552 617.919 444.57 618.428C449.997 621.65 455.424 624.703 460.682 627.586C472.045 633.862 483.409 640.137 494.602 646.752C499.86 649.804 504.948 650.822 510.715 648.956C525.81 644.377 541.074 640.137 556.168 635.727C558.543 635.049 561.087 634.031 563.461 633.692C566.175 633.183 569.058 632.844 571.942 633.183C578.726 634.031 580.422 637.423 577.199 643.868C575.842 646.582 573.638 648.278 570.924 649.296C568.889 650.144 566.684 650.822 564.479 651.501C552.607 654.893 540.565 658.285 528.693 661.677C527.675 662.016 526.657 662.355 525.64 662.525C526.318 665.578 528.862 665.917 530.728 666.934C543.787 674.227 556.847 681.351 570.076 688.644C572.281 689.831 574.485 691.018 576.69 692.545C579.574 694.58 581.609 697.124 582.626 700.516C583.814 704.586 581.27 708.826 577.03 709.166C575.164 709.335 572.959 708.996 571.263 708.318C568.549 707.3 566.175 706.113 563.631 704.586C550.571 697.293 537.682 689.831 524.622 682.368C522.248 681.012 519.704 679.655 517.499 678.467C514.955 679.824 515.972 681.69 516.481 683.047C518.686 690.679 521.23 698.141 523.435 705.774C525.301 712.049 526.827 718.324 528.353 724.599C529.88 730.366 528.014 735.115 524.283 739.185C517.16 738.507 513.768 734.606 512.072 728.67C507.662 713.406 503.252 698.311 498.843 683.047C497.825 679.485 496.807 675.923 496.129 672.362C495.111 667.274 492.397 663.882 487.649 661.507C478.151 656.589 468.823 651.161 459.495 646.073C452.032 642.003 444.739 637.932 437.277 633.862C435.58 633.014 434.054 631.487 431.34 632.166C431.171 633.523 431.001 635.219 431.001 636.745C431.001 656.589 431.171 676.263 430.832 696.106C430.832 701.194 432.697 704.586 436.089 707.978C448.979 720.699 461.53 733.589 474.25 746.478C476.455 748.683 478.49 751.058 480.186 753.602C482.391 757.163 481.882 760.725 479.508 762.93C476.964 765.474 472.554 765.983 469.332 763.778C466.957 762.251 464.922 760.216 462.887 758.351C454.067 749.531 445.248 740.712 436.429 732.062C435.072 730.705 434.224 728.84 431.171 728.84C431.001 730.875 430.832 733.08 430.832 735.284C430.832 749.701 430.832 764.117 430.832 778.533C430.832 781.077 431.001 783.621 430.662 786.165C430.492 788.37 429.984 790.745 429.135 792.78C427.779 796.342 424.217 798.716 421.503 798.207C417.772 797.699 414.719 794.815 414.211 791.084C413.871 788.54 413.871 785.996 413.871 783.452C413.871 767.679 413.871 751.736 413.871 735.963C413.871 733.588 413.702 731.044 413.532 728.84C410.818 727.822 409.97 729.688 408.783 730.705C399.794 739.694 390.805 748.683 381.816 757.672C380.46 759.029 379.103 760.555 377.576 761.743C376.559 762.591 375.371 763.608 374.014 764.117C367.739 767 362.482 763.439 362.651 756.485C362.651 753.771 363.669 751.566 365.365 749.531C367.061 747.666 368.757 745.8 370.622 743.934C383.003 731.553 395.384 719.003 407.935 706.961C412.175 702.89 413.871 698.481 413.702 692.714C413.362 674.906 413.532 657.097 413.532 639.289C413.532 636.745 413.532 634.201 413.532 630.979C411.497 631.487 409.801 631.487 408.444 632.335C398.268 637.932 388.261 643.529 378.085 649.296C370.962 653.366 363.838 657.437 356.545 661.168C351.627 663.712 348.744 667.274 347.387 672.531C344.164 685.082 340.772 697.633 337.38 710.183C335.854 715.611 333.988 721.038 332.462 726.465C331.105 731.214 328.731 735.284 324.999 738.677C324.321 738.507 323.473 738.507 322.794 737.998C314.314 733.249 313.297 730.705 316.01 721.547C319.572 708.996 323.303 696.615 327.034 684.234C327.543 682.368 328.052 680.503 328.73 677.619C325.678 678.976 323.642 679.655 321.946 680.672C308.378 688.304 294.81 695.937 281.411 703.569C279.376 704.756 277.51 705.774 275.475 706.791C273.949 707.47 272.253 708.148 270.726 708.487C267.165 709.166 263.772 707.978 261.737 705.095C260.041 702.551 260.55 699.498 262.076 696.954C263.264 695.089 264.96 693.392 266.656 692.036C268.352 690.679 270.557 689.661 272.422 688.644C285.821 681.351 299.219 674.058 312.618 666.595C314.823 665.408 317.028 664.051 319.911 662.355C317.876 661.338 316.519 660.32 315.162 659.981C306.512 657.606 297.693 655.401 289.043 653.027C285.312 652.009 281.581 650.653 277.68 649.635C271.235 647.769 266.147 643.868 261.398 638.78C265.299 634.201 269.708 631.996 275.475 632.166C278.189 632.335 281.072 632.844 283.786 633.523C297.354 637.254 310.922 641.324 324.49 645.225C326.865 645.904 329.409 646.752 331.783 647.43C338.737 649.635 344.843 648.617 351.118 644.886C365.873 636.067 381.138 627.926 396.063 619.445C398.268 618.258 400.303 616.901 403.186 615.205C401.66 614.018 400.812 613.001 399.794 612.322C382.495 602.655 365.195 593.157 347.896 583.49C344.504 581.624 341.111 581.454 337.38 582.472C320.42 587.56 303.29 592.309 286.16 597.397C280.394 599.093 274.627 599.263 268.521 598.584C268.182 597.058 267.673 595.701 267.504 594.344C266.825 587.56 268.861 584.168 275.305 582.133C280.054 580.606 285.142 579.589 290.061 578.232C298.541 576.027 307.021 573.653 315.332 571.448C316.858 570.939 318.385 570.261 320.759 569.413C318.894 568.056 317.706 567.038 316.349 566.36C302.103 558.388 287.687 550.417 273.44 542.276C270.217 540.41 266.995 538.545 264.281 536.17C259.702 532.1 260.55 526.333 265.468 523.28C267.843 521.924 270.387 521.754 272.761 522.941C276.662 524.637 280.393 526.673 284.125 528.708C296.675 535.661 309.226 542.785 321.777 549.908C323.812 551.095 325.678 553.131 329.239 552.452C328.731 550.247 328.561 548.043 327.882 546.007C324.66 533.796 321.098 521.584 318.045 509.203C316.349 502.589 316.689 500.214 319.233 492.413C327.204 493.091 331.953 497.501 333.988 504.963C337.38 517.175 340.772 529.386 344.164 541.598C346.03 548.212 347.726 554.657 349.422 561.272C350.27 564.494 351.966 566.699 354.849 568.395C373.167 578.402 391.484 588.578 409.801 598.754C410.479 599.093 411.327 599.263 412.006 599.432C413.871 598.584 413.363 597.058 413.363 595.701C413.363 575.857 413.362 556.183 413.532 536.34C413.532 531.591 411.497 528.369 408.444 525.316C395.724 512.935 383.173 500.214 370.453 487.833C368.587 485.968 366.891 484.272 365.195 482.236C363.16 479.692 362.312 476.809 362.482 473.587C362.821 468.668 367.061 465.615 371.979 466.972C375.032 467.82 377.407 470.025 379.611 472.23C388.94 481.728 398.437 491.056 407.766 500.384C409.122 501.741 410.649 502.758 412.006 503.776C414.041 502.08 413.363 500.384 413.363 498.688C413.363 482.067 413.363 465.276 413.363 448.655C413.363 446.45 413.362 444.076 413.532 441.871C413.702 440.514 413.871 438.988 414.38 437.8C415.567 434.578 419.299 431.525 422.012 431.864C425.235 432.204 426.931 434.578 428.287 437.122C430.153 440.684 430.323 444.754 430.323 448.655C430.323 464.259 430.323 479.692 430.323 495.296C430.323 497.84 430.492 500.214 430.662 502.589C433.206 503.606 434.054 501.741 435.241 500.723C444.4 491.565 453.558 482.406 462.887 473.248C464.752 471.552 466.618 469.686 468.653 468.329C471.876 466.294 476.285 466.803 478.829 469.177C481.034 471.212 482.052 475.283 480.186 478.505C478.49 481.389 476.455 484.102 474.08 486.477C461.869 499.027 449.318 511.239 436.937 523.789C435.75 524.977 434.563 526.164 433.376 527.351C431.34 529.217 430.323 531.421 430.323 534.135C430.323 535.322 430.323 536.34 430.323 537.527C430.323 555.844 430.323 574.331 430.323 592.648C430.323 594.853 430.662 597.058 430.832 599.941C432.867 599.263 434.563 598.924 435.92 598.076C453.219 588.408 470.349 578.741 487.649 569.073C491.38 567.038 493.754 564.324 494.094 559.745C494.263 557.201 495.281 554.827 496.129 552.452C501.217 538.375 505.118 523.959 508.679 509.373C509.019 507.677 509.697 506.151 510.036 504.455C511.732 497.331 516.481 494.278 523.605 493.939C527.505 497.84 528.014 502.589 526.997 507.338C526.149 511.747 524.961 516.157 523.605 520.397C520.721 529.895 517.668 539.223 514.785 548.721C514.276 550.247 514.276 551.943 513.937 554.318C517.16 552.622 519.704 551.265 522.078 549.908C536.155 542.106 550.232 534.305 564.309 526.673C566.514 525.485 568.889 524.298 571.094 523.45C574.994 521.924 578.556 523.28 580.591 526.673C582.626 530.065 582.118 534.135 579.234 536.679C577.538 538.206 575.673 539.393 573.638 540.41C559.391 548.551 545.144 556.523 530.897 564.664C528.523 566.02 526.149 567.547 523.774 568.904C524.792 570.261 524.961 570.939 525.131 571.448Z" fill="white"/>
</svg>
